<?xml version="1.0" encoding="UTF-8" standalone="no"?>
<!DOCTYPE svg PUBLIC "-//W3C//DTD SVG 1.0//EN"
 "http://www.w3.org/TR/2001/REC-SVG-20010904/DTD/svg10.dtd" [
 <!ATTLIST svg xmlns:xlink CDATA #FIXED "http://www.w3.org/1999/xlink">
]>
<!-- Generated by Graphviz version 2.20.2 (Wed Sep 16 11:12:11 UTC 2009)
     For user: (xijo) xijo,,, -->
<!-- Title: models_diagram Pages: 1 -->
<svg width="1491pt" height="868pt"
 viewBox="0.00 0.00 1491.00 868.00" xmlns="http://www.w3.org/2000/svg" xmlns:xlink="http://www.w3.org/1999/xlink">
<g id="graph0" class="graph" transform="scale(1 1) rotate(0) translate(4 864)">
<title>models_diagram</title>
<polygon style="fill:white;stroke:white;" points="-4,4 -4,-864 1487,-864 1487,4 -4,4"/>
<!-- _diagram_info -->
<g id="node1" class="node"><title>_diagram_info</title>
<text text-anchor="start" x="7.5" y="-839.4" style="font-family:Times New Roman;font-size:11.00;">Models diagram</text>
<text text-anchor="start" x="7.5" y="-822.4" style="font-family:Times New Roman;font-size:11.00;">Date: Nov 11 2009 &#45; 10:13</text>
<text text-anchor="start" x="7.5" y="-805.4" style="font-family:Times New Roman;font-size:11.00;">Migration version: 20091102155547</text>
<text text-anchor="start" x="7.5" y="-788.4" style="font-family:Times New Roman;font-size:11.00;">Generated by RailRoad 0.5.0</text>
</g>
<!-- Membership -->
<g id="node2" class="node"><title>Membership</title>
<polyline style="fill:none;stroke:black;" points="629,-0 770,-0 "/>
<path style="fill:none;stroke:black;" d="M770,-0C776,-0 782,-6 782,-12"/>
<polyline style="fill:none;stroke:black;" points="782,-12 782,-89 "/>
<path style="fill:none;stroke:black;" d="M782,-89C782,-95 776,-101 770,-101"/>
<polyline style="fill:none;stroke:black;" points="770,-101 629,-101 "/>
<path style="fill:none;stroke:black;" d="M629,-101C623,-101 617,-95 617,-89"/>
<polyline style="fill:none;stroke:black;" points="617,-89 617,-12 "/>
<path style="fill:none;stroke:black;" d="M617,-12C617,-6 623,-0 629,-0"/>
<text text-anchor="middle" x="699" y="-83.9" style="font-family:Times New Roman;font-size:11.00;">Membership</text>
<polyline style="fill:none;stroke:black;" points="617,-76 782,-76 "/>
<text text-anchor="start" x="624.5" y="-59.4" style="font-family:Times New Roman;font-size:11.00;">organisation :string</text>
<text text-anchor="start" x="624.5" y="-42.4" style="font-family:Times New Roman;font-size:11.00;">position :string</text>
<text text-anchor="start" x="624.5" y="-25.4" style="font-family:Times New Roman;font-size:11.00;">created_at :datetime</text>
<text text-anchor="start" x="624.5" y="-8.4" style="font-family:Times New Roman;font-size:11.00;">updated_at :datetime</text>
</g>
<!-- Profile -->
<g id="node3" class="node"><title>Profile</title>
<polyline style="fill:none;stroke:black;" points="827,-140 1020,-140 "/>
<path style="fill:none;stroke:black;" d="M1020,-140C1026,-140 1032,-146 1032,-152"/>
<polyline style="fill:none;stroke:black;" points="1032,-152 1032,-399 "/>
<path style="fill:none;stroke:black;" d="M1032,-399C1032,-405 1026,-411 1020,-411"/>
<polyline style="fill:none;stroke:black;" points="1020,-411 827,-411 "/>
<path style="fill:none;stroke:black;" d="M827,-411C821,-411 815,-405 815,-399"/>
<polyline style="fill:none;stroke:black;" points="815,-399 815,-152 "/>
<path style="fill:none;stroke:black;" d="M815,-152C815,-146 821,-140 827,-140"/>
<text text-anchor="middle" x="923" y="-393.9" style="font-family:Times New Roman;font-size:11.00;">Profile</text>
<polyline style="fill:none;stroke:black;" points="815,-386 1032,-386 "/>
<text text-anchor="start" x="822.5" y="-369.4" style="font-family:Times New Roman;font-size:11.00;">first_name :string</text>
<text text-anchor="start" x="822.5" y="-352.4" style="font-family:Times New Roman;font-size:11.00;">last_name :string</text>
<text text-anchor="start" x="822.5" y="-335.4" style="font-family:Times New Roman;font-size:11.00;">female :boolean</text>
<text text-anchor="start" x="822.5" y="-318.4" style="font-family:Times New Roman;font-size:11.00;">city :string</text>
<text text-anchor="start" x="822.5" y="-301.4" style="font-family:Times New Roman;font-size:11.00;">country :string</text>
<text text-anchor="start" x="822.5" y="-284.4" style="font-family:Times New Roman;font-size:11.00;">about_me :string</text>
<text text-anchor="start" x="822.5" y="-267.4" style="font-family:Times New Roman;font-size:11.00;">motivation :string</text>
<text text-anchor="start" x="822.5" y="-250.4" style="font-family:Times New Roman;font-size:11.00;">birthday :date</text>
<text text-anchor="start" x="822.5" y="-233.4" style="font-family:Times New Roman;font-size:11.00;">created_at :datetime</text>
<text text-anchor="start" x="822.5" y="-216.4" style="font-family:Times New Roman;font-size:11.00;">updated_at :datetime</text>
<text text-anchor="start" x="822.5" y="-199.4" style="font-family:Times New Roman;font-size:11.00;">avatar_file_name :string</text>
<text text-anchor="start" x="822.5" y="-182.4" style="font-family:Times New Roman;font-size:11.00;">avatar_content_type :string</text>
<text text-anchor="start" x="822.5" y="-165.4" style="font-family:Times New Roman;font-size:11.00;">avatar_file_size :integer</text>
<text text-anchor="start" x="822.5" y="-148.4" style="font-family:Times New Roman;font-size:11.00;">avatar_updated_at :datetime</text>
</g>
<!-- Profile&#45;&gt;Membership -->
<g id="edge4" class="edge"><title>Profile&#45;&gt;Membership</title>
<path style="fill:none;stroke:black;" d="M808,-142C807,-141 807,-141 806,-140 795,-129 783,-118 771,-108"/>
<polygon style="fill:black;stroke:black;" points="807.929,-141.929 811.818,-152.182 811.464,-145.464 815,-149 815,-149 815,-149 811.464,-145.464 818.182,-145.818 807.929,-141.929 807.929,-141.929"/>
<polygon style="fill:black;stroke:black;" points="770.526,-107.585 765.963,-97.6134 766.763,-104.293 763,-101 763,-101 763,-101 766.763,-104.293 760.037,-104.387 770.526,-107.585 770.526,-107.585"/>
</g>
<!-- Concernment -->
<g id="node5" class="node"><title>Concernment</title>
<polyline style="fill:none;stroke:black;" points="289,-9 430,-9 "/>
<path style="fill:none;stroke:black;" d="M430,-9C436,-9 442,-15 442,-21"/>
<polyline style="fill:none;stroke:black;" points="442,-21 442,-81 "/>
<path style="fill:none;stroke:black;" d="M442,-81C442,-87 436,-93 430,-93"/>
<polyline style="fill:none;stroke:black;" points="430,-93 289,-93 "/>
<path style="fill:none;stroke:black;" d="M289,-93C283,-93 277,-87 277,-81"/>
<polyline style="fill:none;stroke:black;" points="277,-81 277,-21 "/>
<path style="fill:none;stroke:black;" d="M277,-21C277,-15 283,-9 289,-9"/>
<text text-anchor="middle" x="359" y="-75.9" style="font-family:Times New Roman;font-size:11.00;">Concernment</text>
<polyline style="fill:none;stroke:black;" points="277,-68 442,-68 "/>
<text text-anchor="start" x="284.5" y="-50.9" style="font-family:Times New Roman;font-size:11.00;">sort :integer</text>
<text text-anchor="start" x="284.5" y="-33.9" style="font-family:Times New Roman;font-size:11.00;">created_at :datetime</text>
<text text-anchor="start" x="284.5" y="-16.9" style="font-family:Times New Roman;font-size:11.00;">updated_at :datetime</text>
</g>
<!-- Profile&#45;&gt;Concernment -->
<g id="edge6" class="edge"><title>Profile&#45;&gt;Concernment</title>
<path style="fill:none;stroke:black;" d="M806,-140C806,-140 806,-140 806,-140 729,-95 696,-119 608,-102 557,-92 499,-80 452,-70"/>
<polygon style="fill:black;stroke:black;" points="806.258,-140.144 812.815,-148.934 810.629,-142.572 815,-145 815,-145 815,-145 810.629,-142.572 817.185,-141.066 806.258,-140.144 806.258,-140.144"/>
<polygon style="fill:black;stroke:black;" points="451.806,-69.9612 442.883,-63.5874 446.903,-68.9806 442,-68 442,-68 442,-68 446.903,-68.9806 441.117,-72.4126 451.806,-69.9612 451.806,-69.9612"/>
</g>
<!-- WebProfile -->
<g id="node11" class="node"><title>WebProfile</title>
<polyline style="fill:none;stroke:black;" points="955,-0 1096,-0 "/>
<path style="fill:none;stroke:black;" d="M1096,-0C1102,-0 1108,-6 1108,-12"/>
<polyline style="fill:none;stroke:black;" points="1108,-12 1108,-89 "/>
<path style="fill:none;stroke:black;" d="M1108,-89C1108,-95 1102,-101 1096,-101"/>
<polyline style="fill:none;stroke:black;" points="1096,-101 955,-101 "/>
<path style="fill:none;stroke:black;" d="M955,-101C949,-101 943,-95 943,-89"/>
<polyline style="fill:none;stroke:black;" points="943,-89 943,-12 "/>
<path style="fill:none;stroke:black;" d="M943,-12C943,-6 949,-0 955,-0"/>
<text text-anchor="middle" x="1025" y="-83.9" style="font-family:Times New Roman;font-size:11.00;">WebProfile</text>
<polyline style="fill:none;stroke:black;" points="943,-76 1108,-76 "/>
<text text-anchor="start" x="950.5" y="-59.4" style="font-family:Times New Roman;font-size:11.00;">location :string</text>
<text text-anchor="start" x="950.5" y="-42.4" style="font-family:Times New Roman;font-size:11.00;">sort :integer</text>
<text text-anchor="start" x="950.5" y="-25.4" style="font-family:Times New Roman;font-size:11.00;">created_at :datetime</text>
<text text-anchor="start" x="950.5" y="-8.4" style="font-family:Times New Roman;font-size:11.00;">updated_at :datetime</text>
</g>
<!-- Profile&#45;&gt;WebProfile -->
<g id="edge2" class="edge"><title>Profile&#45;&gt;WebProfile</title>
<path style="fill:none;stroke:black;" d="M989,-131C992,-124 995,-117 998,-110"/>
<polygon style="fill:black;stroke:black;" points="989.061,-130.862 980.888,-138.172 987.031,-135.431 985,-140 985,-140 985,-140 987.031,-135.431 989.112,-141.828 989.061,-130.862 989.061,-130.862"/>
<polygon style="fill:black;stroke:black;" points="997.939,-110.138 1006.11,-102.828 999.969,-105.569 1002,-101 1002,-101 1002,-101 999.969,-105.569 997.888,-99.1723 997.939,-110.138 997.939,-110.138"/>
</g>
<!-- Role -->
<g id="node4" class="node"><title>Role</title>
<polyline style="fill:none;stroke:black;" points="437,-225 603,-225 "/>
<path style="fill:none;stroke:black;" d="M603,-225C609,-225 615,-231 615,-237"/>
<polyline style="fill:none;stroke:black;" points="615,-237 615,-314 "/>
<path style="fill:none;stroke:black;" d="M615,-314C615,-320 609,-326 603,-326"/>
<polyline style="fill:none;stroke:black;" points="603,-326 437,-326 "/>
<path style="fill:none;stroke:black;" d="M437,-326C431,-326 425,-320 425,-314"/>
<polyline style="fill:none;stroke:black;" points="425,-314 425,-237 "/>
<path style="fill:none;stroke:black;" d="M425,-237C425,-231 431,-225 437,-225"/>
<text text-anchor="middle" x="520" y="-308.9" style="font-family:Times New Roman;font-size:11.00;">Role</text>
<polyline style="fill:none;stroke:black;" points="425,-301 615,-301 "/>
<text text-anchor="start" x="433" y="-284.4" style="font-family:Times New Roman;font-size:11.00;">name :string</text>
<text text-anchor="start" x="433" y="-267.4" style="font-family:Times New Roman;font-size:11.00;">authorizable_type :string</text>
<text text-anchor="start" x="433" y="-250.4" style="font-family:Times New Roman;font-size:11.00;">created_at :datetime</text>
<text text-anchor="start" x="433" y="-233.4" style="font-family:Times New Roman;font-size:11.00;">updated_at :datetime</text>
</g>
<!-- User -->
<g id="node13" class="node"><title>User</title>
<polyline style="fill:none;stroke:black;" points="439,-466 615,-466 "/>
<path style="fill:none;stroke:black;" d="M615,-466C621,-466 627,-472 627,-478"/>
<polyline style="fill:none;stroke:black;" points="627,-478 627,-725 "/>
<path style="fill:none;stroke:black;" d="M627,-725C627,-731 621,-737 615,-737"/>
<polyline style="fill:none;stroke:black;" points="615,-737 439,-737 "/>
<path style="fill:none;stroke:black;" d="M439,-737C433,-737 427,-731 427,-725"/>
<polyline style="fill:none;stroke:black;" points="427,-725 427,-478 "/>
<path style="fill:none;stroke:black;" d="M427,-478C427,-472 433,-466 439,-466"/>
<text text-anchor="middle" x="527" y="-719.9" style="font-family:Times New Roman;font-size:11.00;">User</text>
<polyline style="fill:none;stroke:black;" points="427,-712 627,-712 "/>
<text text-anchor="start" x="435" y="-695.4" style="font-family:Times New Roman;font-size:11.00;">email :string</text>
<text text-anchor="start" x="435" y="-678.4" style="font-family:Times New Roman;font-size:11.00;">crypted_password :string</text>
<text text-anchor="start" x="435" y="-661.4" style="font-family:Times New Roman;font-size:11.00;">password_salt :string</text>
<text text-anchor="start" x="435" y="-644.4" style="font-family:Times New Roman;font-size:11.00;">persistence_token :string</text>
<text text-anchor="start" x="435" y="-627.4" style="font-family:Times New Roman;font-size:11.00;">perishable_token :string</text>
<text text-anchor="start" x="435" y="-610.4" style="font-family:Times New Roman;font-size:11.00;">last_request_at :datetime</text>
<text text-anchor="start" x="435" y="-593.4" style="font-family:Times New Roman;font-size:11.00;">current_login_at :datetime</text>
<text text-anchor="start" x="435" y="-576.4" style="font-family:Times New Roman;font-size:11.00;">last_login_at :datetime</text>
<text text-anchor="start" x="435" y="-559.4" style="font-family:Times New Roman;font-size:11.00;">current_login_ip :string</text>
<text text-anchor="start" x="435" y="-542.4" style="font-family:Times New Roman;font-size:11.00;">last_login_ip :string</text>
<text text-anchor="start" x="435" y="-525.4" style="font-family:Times New Roman;font-size:11.00;">created_at :datetime</text>
<text text-anchor="start" x="435" y="-508.4" style="font-family:Times New Roman;font-size:11.00;">updated_at :datetime</text>
<text text-anchor="start" x="435" y="-491.4" style="font-family:Times New Roman;font-size:11.00;">active :boolean</text>
<text text-anchor="start" x="435" y="-474.4" style="font-family:Times New Roman;font-size:11.00;">openid_identifier :string</text>
</g>
<!-- Role&#45;&gt;User -->
<g id="edge8" class="edge"><title>Role&#45;&gt;User</title>
<path style="fill:none;stroke:black;" d="M521,-336C522,-370 523,-414 524,-456"/>
<polygon style="fill:black;stroke:black;" points="521,-336 525.5,-326 521,-331 521,-326 521,-326 521,-326 521,-331 516.5,-326 521,-336 521,-336"/>
<polygon style="fill:black;stroke:black;" points="524,-456 519.5,-466 524,-461 524,-466 524,-466 524,-466 524,-461 528.5,-466 524,-456 524,-456"/>
</g>
<!-- TranslationOption -->
<g id="node6" class="node"><title>TranslationOption</title>
<polygon style="fill:none;stroke:black;" points="552,-793 552,-843 690,-843 690,-793 552,-793"/>
<text text-anchor="middle" x="621" y="-825.9" style="font-family:Times New Roman;font-size:11.00;">TranslationOption</text>
<polyline style="fill:none;stroke:black;" points="552,-818 690,-818 "/>
<text text-anchor="middle" x="621" y="-800.9" style="font-family:Times New Roman;font-size:11.00;"> </text>
</g>
<!-- Report -->
<g id="node7" class="node"><title>Report</title>
<polyline style="fill:none;stroke:black;" points="645,-217 786,-217 "/>
<path style="fill:none;stroke:black;" d="M786,-217C792,-217 798,-223 798,-229"/>
<polyline style="fill:none;stroke:black;" points="798,-229 798,-323 "/>
<path style="fill:none;stroke:black;" d="M798,-323C798,-329 792,-335 786,-335"/>
<polyline style="fill:none;stroke:black;" points="786,-335 645,-335 "/>
<path style="fill:none;stroke:black;" d="M645,-335C639,-335 633,-329 633,-323"/>
<polyline style="fill:none;stroke:black;" points="633,-323 633,-229 "/>
<path style="fill:none;stroke:black;" d="M633,-229C633,-223 639,-217 645,-217"/>
<text text-anchor="middle" x="715" y="-317.9" style="font-family:Times New Roman;font-size:11.00;">Report</text>
<polyline style="fill:none;stroke:black;" points="633,-310 798,-310 "/>
<text text-anchor="start" x="640.5" y="-292.9" style="font-family:Times New Roman;font-size:11.00;">reason :text</text>
<text text-anchor="start" x="640.5" y="-275.9" style="font-family:Times New Roman;font-size:11.00;">done :boolean</text>
<text text-anchor="start" x="640.5" y="-258.9" style="font-family:Times New Roman;font-size:11.00;">decision :text</text>
<text text-anchor="start" x="640.5" y="-241.9" style="font-family:Times New Roman;font-size:11.00;">created_at :datetime</text>
<text text-anchor="start" x="640.5" y="-224.9" style="font-family:Times New Roman;font-size:11.00;">updated_at :datetime</text>
</g>
<!-- Translation -->
<g id="node8" class="node"><title>Translation</title>
<polyline style="fill:none;stroke:black;" points="709,-551 891,-551 "/>
<path style="fill:none;stroke:black;" d="M891,-551C897,-551 903,-557 903,-563"/>
<polyline style="fill:none;stroke:black;" points="903,-563 903,-640 "/>
<path style="fill:none;stroke:black;" d="M903,-640C903,-646 897,-652 891,-652"/>
<polyline style="fill:none;stroke:black;" points="891,-652 709,-652 "/>
<path style="fill:none;stroke:black;" d="M709,-652C703,-652 697,-646 697,-640"/>
<polyline style="fill:none;stroke:black;" points="697,-640 697,-563 "/>
<path style="fill:none;stroke:black;" d="M697,-563C697,-557 703,-551 709,-551"/>
<text text-anchor="middle" x="800" y="-634.9" style="font-family:Times New Roman;font-size:11.00;">Translation</text>
<polyline style="fill:none;stroke:black;" points="697,-627 903,-627 "/>
<text text-anchor="start" x="705" y="-610.4" style="font-family:Times New Roman;font-size:11.00;">key :string</text>
<text text-anchor="start" x="705" y="-593.4" style="font-family:Times New Roman;font-size:11.00;">raw_key :string</text>
<text text-anchor="start" x="705" y="-576.4" style="font-family:Times New Roman;font-size:11.00;">value :text</text>
<text text-anchor="start" x="705" y="-559.4" style="font-family:Times New Roman;font-size:11.00;">pluralization_index :integer</text>
</g>
<!-- UserSession -->
<g id="node9" class="node"><title>UserSession</title>
<polygon style="fill:none;stroke:black;" points="947,-577 947,-627 1046,-627 1046,-577 947,-577"/>
<text text-anchor="middle" x="996" y="-609.9" style="font-family:Times New Roman;font-size:11.00;">UserSession</text>
<polyline style="fill:none;stroke:black;" points="947,-602 1046,-602 "/>
<text text-anchor="middle" x="996" y="-584.9" style="font-family:Times New Roman;font-size:11.00;"> </text>
</g>
<!-- Tag -->
<g id="node10" class="node"><title>Tag</title>
<polyline style="fill:none;stroke:black;" points="300,-776 441,-776 "/>
<path style="fill:none;stroke:black;" d="M441,-776C447,-776 453,-782 453,-788"/>
<polyline style="fill:none;stroke:black;" points="453,-788 453,-848 "/>
<path style="fill:none;stroke:black;" d="M453,-848C453,-854 447,-860 441,-860"/>
<polyline style="fill:none;stroke:black;" points="441,-860 300,-860 "/>
<path style="fill:none;stroke:black;" d="M300,-860C294,-860 288,-854 288,-848"/>
<polyline style="fill:none;stroke:black;" points="288,-848 288,-788 "/>
<path style="fill:none;stroke:black;" d="M288,-788C288,-782 294,-776 300,-776"/>
<text text-anchor="middle" x="370" y="-842.9" style="font-family:Times New Roman;font-size:11.00;">Tag</text>
<polyline style="fill:none;stroke:black;" points="288,-835 453,-835 "/>
<text text-anchor="start" x="295.5" y="-817.9" style="font-family:Times New Roman;font-size:11.00;">value :string</text>
<text text-anchor="start" x="295.5" y="-800.9" style="font-family:Times New Roman;font-size:11.00;">created_at :datetime</text>
<text text-anchor="start" x="295.5" y="-783.9" style="font-family:Times New Roman;font-size:11.00;">updated_at :datetime</text>
</g>
<!-- Tag&#45;&gt;Concernment -->
<g id="edge12" class="edge"><title>Tag&#45;&gt;Concernment</title>
<path style="fill:none;stroke:black;" d="M363,-766C349,-652 321,-373 342,-140 344,-127 345,-114 347,-101"/>
<polygon style="fill:black;stroke:black;" points="363.005,-766.05 359.522,-776.448 363.502,-771.025 364,-776 364,-776 364,-776 363.502,-771.025 368.478,-775.552 363.005,-766.05 363.005,-766.05"/>
<ellipse style="fill:black;stroke:black;" cx="348.03" cy="-96.8806" rx="4.00001" ry="4.00001"/>
</g>
<!-- Tag&#45;&gt;User -->
<g id="edge14" class="edge"><title>Tag&#45;&gt;User</title>
<path style="fill:none;stroke:black;" d="M407,-768C412,-761 417,-753 423,-746"/>
<polygon style="fill:black;stroke:black;" points="407,-768 397.4,-773.3 404,-772 401,-776 401,-776 401,-776 404,-772 404.6,-778.7 407,-768 407,-768"/>
<polygon style="fill:black;stroke:black;" points="423.453,-745.321 432.744,-739.496 426.226,-741.16 429,-737 429,-737 429,-737 426.226,-741.16 425.256,-734.504 423.453,-745.321 423.453,-745.321"/>
</g>
<!-- Locale -->
<g id="node12" class="node"><title>Locale</title>
<polyline style="fill:none;stroke:black;" points="761,-784 840,-784 "/>
<path style="fill:none;stroke:black;" d="M840,-784C846,-784 852,-790 852,-796"/>
<polyline style="fill:none;stroke:black;" points="852,-796 852,-839 "/>
<path style="fill:none;stroke:black;" d="M852,-839C852,-845 846,-851 840,-851"/>
<polyline style="fill:none;stroke:black;" points="840,-851 761,-851 "/>
<path style="fill:none;stroke:black;" d="M761,-851C755,-851 749,-845 749,-839"/>
<polyline style="fill:none;stroke:black;" points="749,-839 749,-796 "/>
<path style="fill:none;stroke:black;" d="M749,-796C749,-790 755,-784 761,-784"/>
<text text-anchor="middle" x="800" y="-833.9" style="font-family:Times New Roman;font-size:11.00;">Locale</text>
<polyline style="fill:none;stroke:black;" points="749,-826 852,-826 "/>
<text text-anchor="start" x="756.5" y="-809.4" style="font-family:Times New Roman;font-size:11.00;">code :string</text>
<text text-anchor="start" x="756.5" y="-792.4" style="font-family:Times New Roman;font-size:11.00;">name :string</text>
</g>
<!-- Locale&#45;&gt;Translation -->
<g id="edge16" class="edge"><title>Locale&#45;&gt;Translation</title>
<path style="fill:none;stroke:black;" d="M800,-774C800,-741 800,-696 800,-660"/>
<polygon style="fill:black;stroke:black;" points="800,-774 795.5,-784 800,-779 800,-784 800,-784 800,-784 800,-779 804.5,-784 800,-774 800,-774"/>
<ellipse style="fill:black;stroke:black;" cx="800" cy="-656" rx="4" ry="4"/>
</g>
<!-- User&#45;&gt;Membership -->
<g id="edge20" class="edge"><title>User&#45;&gt;Membership</title>
<path style="fill:none;stroke:black;" d="M435,-457C387,-359 349,-232 416,-140 440,-108 535,-83 609,-68"/>
<polygon style="fill:black;stroke:black;" points="435.144,-457.258 436.066,-468.185 437.572,-461.629 440,-466 440,-466 440,-466 437.572,-461.629 443.934,-463.815 435.144,-457.258 435.144,-457.258"/>
<ellipse style="fill:black;stroke:black;" cx="613.119" cy="-66.9702" rx="4.00001" ry="4.00001"/>
</g>
<!-- User&#45;&gt;Profile -->
<g id="edge28" class="edge"><title>User&#45;&gt;Profile</title>
<path style="fill:none;stroke:black;" d="M634,-505C651,-491 669,-478 688,-466 737,-435 760,-446 806,-412 807,-411 808,-411 809,-410"/>
<ellipse style="fill:none;stroke:black;" cx="630.255" cy="-507.675" rx="4.00002" ry="4.00002"/>
<ellipse style="fill:black;stroke:black;" cx="811.927" cy="-407.561" rx="4.00002" ry="4.00002"/>
</g>
<!-- User&#45;&gt;Role -->
<g id="edge24" class="edge"><title>User&#45;&gt;Role</title>
<path style="fill:none;stroke:black;" d="M441,-456C440,-454 439,-451 438,-448 428,-408 447,-367 469,-334"/>
<polygon style="fill:black;stroke:black;" points="441.126,-456.422 439.69,-467.293 442.563,-461.211 444,-466 444,-466 444,-466 442.563,-461.211 448.31,-464.707 441.126,-456.422 441.126,-456.422"/>
<polygon style="fill:black;stroke:black;" points="469,-334 478.6,-328.7 472,-330 475,-326 475,-326 475,-326 472,-330 471.4,-323.3 469,-334 469,-334"/>
<text text-anchor="middle" x="479" y="-434.9" style="font-family:Times New Roman;font-size:11.00;">role_objects</text>
</g>
<!-- User&#45;&gt;Role -->
<g id="edge30" class="edge"><title>User&#45;&gt;Role</title>
<path style="fill:none;stroke:black;" d="M539,-456C539,-447 539,-439 538,-430 536,-398 532,-363 528,-334"/>
<polygon style="fill:black;stroke:black;" points="539,-456 534.5,-466 539,-461 539,-466 539,-466 539,-466 539,-461 543.5,-466 539,-456 539,-456"/>
<ellipse style="fill:black;stroke:black;" cx="527.496" cy="-329.969" rx="4.00001" ry="4.00001"/>
<text text-anchor="middle" x="592" y="-434.9" style="font-family:Times New Roman;font-size:11.00;">accepted_roles</text>
</g>
<!-- User&#45;&gt;Concernment -->
<g id="edge22" class="edge"><title>User&#45;&gt;Concernment</title>
<path style="fill:none;stroke:black;" d="M420,-507C406,-489 393,-469 383,-448 334,-331 342,-179 352,-101"/>
<polygon style="fill:black;stroke:black;" points="420.415,-507.474 423.613,-517.963 423.707,-511.237 427,-515 427,-515 427,-515 423.707,-511.237 430.387,-512.037 420.415,-507.474 420.415,-507.474"/>
<ellipse style="fill:black;stroke:black;" cx="352.504" cy="-96.9691" rx="4.00001" ry="4.00001"/>
</g>
<!-- User&#45;&gt;Report -->
<g id="edge26" class="edge"><title>User&#45;&gt;Report</title>
<path style="fill:none;stroke:black;" d="M633,-470C637,-463 642,-455 646,-448 665,-415 681,-375 693,-343"/>
<polygon style="fill:black;stroke:black;" points="632.547,-470.679 623.256,-476.504 629.774,-474.84 627,-479 627,-479 627,-479 629.774,-474.84 630.744,-481.496 632.547,-470.679 632.547,-470.679"/>
<ellipse style="fill:black;stroke:black;" cx="694.595" cy="-338.745" rx="4.00001" ry="4.00001"/>
</g>
<!-- User&#45;&gt;WebProfile -->
<g id="edge18" class="edge"><title>User&#45;&gt;WebProfile</title>
<path style="fill:none;stroke:black;" d="M635,-497C652,-485 670,-474 688,-466 761,-433 988,-472 1040,-412 1112,-328 1077,-188 1049,-109"/>
<polygon style="fill:black;stroke:black;" points="635,-497 624.3,-499.4 631,-500 627,-503 627,-503 627,-503 631,-500 629.7,-506.6 635,-497 635,-497"/>
<ellipse style="fill:black;stroke:black;" cx="1047.4" cy="-104.745" rx="4.00001" ry="4.00001"/>
</g>
<!-- User&#45;&gt;User -->
<g id="edge32" class="edge"><title>User&#45;&gt;User</title>
<path style="fill:none;stroke:black;" d="M636,-621C642,-616 645,-610 645,-602 645,-594 641,-587 634,-582"/>
<polygon style="fill:black;stroke:black;" points="635.742,-621.144 624.815,-622.066 631.371,-623.572 627,-626 627,-626 627,-626 631.371,-623.572 629.185,-629.934 635.742,-621.144 635.742,-621.144"/>
<ellipse style="fill:black;stroke:black;" cx="630.473" cy="-579.985" rx="4.00002" ry="4.00002"/>
</g>
<!-- Mailer -->
<g id="node14" class="node"><title>Mailer</title>
<polygon style="fill:none;stroke:black;" points="1212,-577 1212,-627 1270,-627 1270,-577 1212,-577"/>
<text text-anchor="middle" x="1241" y="-609.9" style="font-family:Times New Roman;font-size:11.00;">Mailer</text>
<polyline style="fill:none;stroke:black;" points="1212,-602 1270,-602 "/>
<text text-anchor="middle" x="1241" y="-584.9" style="font-family:Times New Roman;font-size:11.00;"> </text>
</g>
<!-- Feedback -->
<g id="node15" class="node"><title>Feedback</title>
<polyline style="fill:none;stroke:black;" points="1371,-776 1471,-776 "/>
<path style="fill:none;stroke:black;" d="M1471,-776C1477,-776 1483,-782 1483,-788"/>
<polyline style="fill:none;stroke:black;" points="1483,-788 1483,-848 "/>
<path style="fill:none;stroke:black;" d="M1483,-848C1483,-854 1477,-860 1471,-860"/>
<polyline style="fill:none;stroke:black;" points="1471,-860 1371,-860 "/>
<path style="fill:none;stroke:black;" d="M1371,-860C1365,-860 1359,-854 1359,-848"/>
<polyline style="fill:none;stroke:black;" points="1359,-848 1359,-788 "/>
<path style="fill:none;stroke:black;" d="M1359,-788C1359,-782 1365,-776 1371,-776"/>
<text text-anchor="middle" x="1421" y="-842.9" style="font-family:Times New Roman;font-size:11.00;">Feedback</text>
<polyline style="fill:none;stroke:black;" points="1359,-835 1483,-835 "/>
<text text-anchor="start" x="1367" y="-817.9" style="font-family:Times New Roman;font-size:11.00;">name :string</text>
<text text-anchor="start" x="1367" y="-800.9" style="font-family:Times New Roman;font-size:11.00;">email :string</text>
<text text-anchor="start" x="1367" y="-783.9" style="font-family:Times New Roman;font-size:11.00;">message :string</text>
</g>
<!-- Authlogic::Session::Base -->
<g id="node20" class="node"><title>Authlogic::Session::Base</title>
<ellipse style="fill:none;stroke:black;" cx="996" cy="-818" rx="127.163" ry="18"/>
<text text-anchor="middle" x="996" y="-813.9" style="font-family:Times New Roman;font-size:11.00;">Authlogic::Session::Base</text>
</g>
<!-- Authlogic::Session::Base&#45;&gt;UserSession -->
<g id="edge10" class="edge"><title>Authlogic::Session::Base&#45;&gt;UserSession</title>
<path style="fill:none;stroke:black;" d="M996,-790C996,-747 996,-668 996,-627"/>
<polygon style="fill:none;stroke:black;" points="992.5,-790 996,-800 999.5,-790 992.5,-790"/>
</g>
<!-- ActionMailer::Base -->
<g id="node33" class="node"><title>ActionMailer::Base</title>
<ellipse style="fill:none;stroke:black;" cx="1241" cy="-818" rx="100.063" ry="18"/>
<text text-anchor="middle" x="1241" y="-813.9" style="font-family:Times New Roman;font-size:11.00;">ActionMailer::Base</text>
</g>
<!-- ActionMailer::Base&#45;&gt;Mailer -->
<g id="edge34" class="edge"><title>ActionMailer::Base&#45;&gt;Mailer</title>
<path style="fill:none;stroke:black;" d="M1241,-790C1241,-747 1241,-668 1241,-627"/>
<polygon style="fill:none;stroke:black;" points="1237.5,-790 1241,-800 1244.5,-790 1237.5,-790"/>
</g>
</g>
</svg>
